# This file uses centimeters as units for non-parametric coordinates.

mtllib wood.mtl
g default
v -1.088815 -0.028663 0.171793
v 1.088815 -0.028663 0.171793
v -1.088815 0.028663 0.171793
v 1.088815 0.028663 0.171793
v -1.088815 0.028663 -0.171793
v 1.088815 0.028663 -0.171793
v -1.088815 -0.028663 -0.171793
v 1.088815 -0.028663 -0.171793
vt 0.015037 0.008472
vt 0.611172 0.011140
vt 0.612368 0.041865
vt 0.014258 0.040345
vt 0.611687 0.165978
vt 0.013111 0.164292
vt 0.612307 0.199686
vt 0.013365 0.197788
vt 0.609934 0.324600
vt 0.014422 0.322233
vt 0.084349 0.990769
vt 0.084349 0.897767
vt 0.097020 0.897767
vt 0.097020 0.990770
vt 0.084349 0.897767
vt 0.084349 0.990769
vt 0.097020 0.990769
vt 0.097020 0.897767
vn 0.000000 0.000000 1.000000
vn 0.000000 0.000000 1.000000
vn 0.000000 0.000000 1.000000
vn 0.000000 0.000000 1.000000
vn 0.000000 1.000000 0.000000
vn 0.000000 1.000000 0.000000
vn 0.000000 1.000000 0.000000
vn 0.000000 1.000000 0.000000
vn 0.000000 0.000000 -1.000000
vn 0.000000 0.000000 -1.000000
vn 0.000000 0.000000 -1.000000
vn 0.000000 0.000000 -1.000000
vn 0.000000 -1.000000 0.000000
vn 0.000000 -1.000000 0.000000
vn 0.000000 -1.000000 0.000000
vn 0.000000 -1.000000 0.000000
vn 1.000000 0.000000 0.000000
vn 1.000000 0.000000 0.000000
vn 1.000000 0.000000 0.000000
vn 1.000000 0.000000 0.000000
vn -1.000000 0.000000 0.000000
vn -1.000000 0.000000 0.000000
vn -1.000000 0.000000 0.000000
vn -1.000000 0.000000 0.000000
s off
g plank
usemtl woodSG
f 1/1/1 2/2/2 4/3/3 3/4/4
f 3/4/5 4/3/6 6/5/7 5/6/8
f 5/6/9 6/5/10 8/7/11 7/8/12
f 7/8/13 8/7/14 2/9/15 1/10/16
f 2/11/17 8/12/18 6/13/19 4/14/20
f 7/15/21 1/16/22 3/17/23 5/18/24
g default
v -1.091639 -0.032235 0.176943
v 1.087541 -0.030834 0.177950
v -1.091887 0.028663 0.171793
v 1.088815 0.028663 0.171793
v -1.089886 0.024004 -0.175554
v 1.130473 0.028663 -0.178190
v -1.088815 -0.028663 -0.171793
v 1.128893 -0.028663 -0.171793
v -1.130844 0.033085 0.096189
v -1.130897 -0.028663 0.099853
v 1.132806 -0.036386 -0.019289
v 1.131966 0.028663 -0.019427
vt 0.031396 0.027938
vt 0.562406 0.029500
vt 0.562695 0.050157
vt 0.031313 0.049043
vt 0.572727 0.171037
vt 0.031682 0.169088
vt 0.572276 0.190953
vt 0.031882 0.187324
vt 0.561787 0.311753
vt 0.030784 0.307775
vt 0.083870 0.992427
vt 0.084351 0.897843
vt 0.097017 0.896118
vt 0.097020 0.990770
vt 0.084349 0.897767
vt 0.083561 0.992114
vt 0.097019 0.990745
vt 0.095989 0.896755
vt 0.097996 0.970318
vt 0.021793 0.075176
vt 0.084350 0.971302
vt 0.021309 0.281060
vt 0.573053 0.243691
vt 0.082644 0.939067
vt 0.573143 0.116212
vt 0.097018 0.939036
vn -0.000260 0.093503 0.995619
vn -0.000260 0.093503 0.995619
vn -0.000260 0.093503 0.995619
vn -0.000260 0.093503 0.995619
vn 0.001427 0.999861 0.016594
vn 0.001427 0.999861 0.016594
vn 0.000064 0.999963 -0.008645
vn 0.000082 0.999965 -0.008318
vn -0.000495 -0.091951 -0.995763
vn -0.000495 -0.091951 -0.995763
vn -0.000495 -0.091951 -0.995763
vn -0.000495 -0.091951 -0.995763
vn -0.001867 -0.999954 -0.009402
vn -0.001877 -0.999952 -0.009651
vn -0.001231 -0.999973 0.007191
vn -0.001231 -0.999973 0.007191
vn 0.975057 0.007817 0.221818
vn 0.992799 0.001470 0.119787
vn 0.992920 0.001408 0.118775
vn 0.975057 0.007817 0.221818
vn -0.999903 -0.005351 0.012874
vn -0.888925 0.031430 0.456974
vn -0.888925 0.031430 0.456974
vn -0.999938 -0.007094 -0.008580
vn -0.988400 -0.018566 -0.150735
vn -0.988400 -0.018566 -0.150735
vn -0.002212 -0.999828 -0.018403
vn -0.002212 -0.999828 -0.018403
vn 0.999822 -0.006973 -0.017536
vn 0.999822 -0.006973 -0.017536
vn -0.000611 0.999776 -0.021147
vn -0.000611 0.999776 -0.021147
s off
g plank1
usemtl woodSG
f 9/19/25 10/20/26 12/21/27 11/22/28
s 1
f 11/22/29 12/21/30 20/43/31 17/38/32
s off
f 13/24/33 14/23/34 16/25/35 15/26/36
s 2
f 18/40/37 19/41/38 10/27/39 9/28/40
s 3
f 10/29/41 19/42/42 20/44/43 12/32/44
s 4
f 18/39/45 9/34/46 11/35/47 17/37/48
f 15/33/49 18/39/45 17/37/48 13/36/50
s 2
f 15/26/51 16/25/52 19/41/38 18/40/37
s 3
f 20/44/43 19/42/42 16/30/53 14/31/54
s 1
f 17/38/32 20/43/31 14/23/55 13/24/56
g default
v -1.091639 -0.032235 0.176943
v 1.087541 -0.030834 0.177950
v -1.091887 0.028663 0.171793
v 1.088815 0.028663 0.171793
v -1.089886 0.024004 -0.175554
v 1.114972 0.028663 -0.178190
v -1.088815 -0.028663 -0.171793
v 1.113392 -0.028663 -0.171793
v -1.065785 0.033085 -0.043192
v -1.065839 -0.028663 -0.039528
v 1.126203 -0.036386 0.121174
v 1.125362 0.028663 0.121036
vt 0.024638 0.222488
vt 0.556480 0.224250
vt 0.556766 0.244939
vt 0.024551 0.243626
vt 0.563002 0.366003
vt 0.024892 0.363888
vt 0.562546 0.385951
vt 0.025090 0.382151
vt 0.555802 0.506989
vt 0.023968 0.502771
vt 0.083870 0.992427
vt 0.084350 0.897807
vt 0.097018 0.896088
vt 0.097020 0.990770
vt 0.084349 0.897767
vt 0.083561 0.992114
vt 0.097019 0.990745
vt 0.095989 0.896755
vt 0.097996 0.932556
vt 0.030830 0.318015
vt 0.084350 0.933541
vt 0.030536 0.427937
vt 0.565317 0.487335
vt 0.082644 0.977028
vt 0.565664 0.262516
vt 0.097019 0.976996
vn -0.000260 0.093502 0.995619
vn -0.000260 0.093502 0.995619
vn -0.000260 0.093502 0.995619
vn -0.000260 0.093502 0.995619
vn 0.000383 0.999860 0.016729
vn 0.000383 0.999860 0.016729
vn 0.000619 0.999953 -0.009666
vn 0.000602 0.999970 -0.007693
vn -0.000499 -0.091951 -0.995763
vn -0.000499 -0.091951 -0.995763
vn -0.000499 -0.091951 -0.995763
vn -0.000499 -0.091951 -0.995763
vn -0.001317 -0.999959 -0.008966
vn -0.001288 -0.999948 -0.010147
vn -0.001699 -0.999975 0.006846
vn -0.001699 -0.999975 0.006846
vn 0.819815 0.026057 0.572035
vn 0.997389 -0.002081 0.072185
vn 0.997108 -0.001873 0.075981
vn 0.819815 0.026057 0.572035
vn -0.999831 -0.005787 -0.017457
vn -0.992768 -0.010166 -0.119615
vn -0.992768 -0.010166 -0.119615
vn -0.999949 -0.005400 -0.008485
vn -0.984554 0.002608 0.175063
vn -0.984554 0.002608 0.175063
vn -0.001096 -0.999836 -0.018065
vn -0.001096 -0.999836 -0.018065
vn 0.999196 -0.008127 -0.039252
vn 0.999196 -0.008127 -0.039252
vn 0.000721 0.999777 -0.021096
vn 0.000721 0.999777 -0.021096
s off
g plank2
usemtl woodSG
f 21/45/57 22/46/58 24/47/59 23/48/60
s 1
f 23/48/61 24/47/62 32/69/63 29/64/64
s off
f 25/50/65 26/49/66 28/51/67 27/52/68
s 2
f 30/66/69 31/67/70 22/53/71 21/54/72
s 3
f 22/55/73 31/68/74 32/70/75 24/58/76
s 4
f 30/65/77 21/60/78 23/61/79 29/63/80
f 27/59/81 30/65/77 29/63/80 25/62/82
s 2
f 27/52/83 28/51/84 31/67/70 30/66/69
s 3
f 32/70/75 31/68/74 28/56/85 26/57/86
s 1
f 29/64/64 32/69/63 26/49/87 25/50/88
g default
v -1.091639 -0.032235 0.176943
v 1.087541 -0.030834 0.177950
v -1.091887 0.028663 0.171793
v 1.088815 0.028663 0.171793
v -1.089886 0.024004 -0.175554
v 1.114972 0.028663 -0.178190
v -1.088815 -0.028663 -0.171793
v 1.113392 -0.028663 -0.171793
v -1.125103 0.033085 -0.057723
v -1.125157 -0.028663 -0.054059
v 1.072817 -0.036386 0.072739
v 1.071976 0.028663 0.072600
vt 0.032370 0.478100
vt 0.565526 0.479690
vt 0.565815 0.500430
vt 0.032287 0.499290
vt 0.572096 0.621789
vt 0.032658 0.619857
vt 0.571643 0.641787
vt 0.032859 0.638166
vt 0.564910 0.763101
vt 0.031761 0.759085
vt 0.083870 0.992427
vt 0.084350 0.897807
vt 0.097018 0.896088
vt 0.097020 0.990770
vt 0.084349 0.897767
vt 0.083561 0.992114
vt 0.097019 0.990745
vt 0.095989 0.896755
vt 0.097995 0.928672
vt 0.024075 0.578867
vt 0.084350 0.929652
vt 0.023829 0.678927
vt 0.561432 0.726547
vt 0.082643 0.963982
vt 0.561659 0.534814
vt 0.097019 0.963950
vn -0.000260 0.093501 0.995619
vn -0.000260 0.093501 0.995619
vn -0.000260 0.093501 0.995619
vn -0.000260 0.093501 0.995619
vn 0.000612 0.999911 0.013359
vn 0.000612 0.999911 0.013359
vn 0.000635 0.999981 -0.006170
vn 0.000636 0.999978 -0.006612
vn -0.000499 -0.091951 -0.995763
vn -0.000499 -0.091951 -0.995763
vn -0.000499 -0.091951 -0.995763
vn -0.000499 -0.091951 -0.995763
vn -0.001371 -0.999966 -0.008136
vn -0.001374 -0.999967 -0.007981
vn -0.001623 -0.999980 0.006122
vn -0.001623 -0.999980 0.006122
vn 0.988271 -0.011136 -0.152303
vn 0.997282 -0.001204 0.073675
vn 0.997324 -0.001230 0.073104
vn 0.988271 -0.011136 -0.152303
vn -0.999964 -0.002593 0.008056
vn -0.989604 0.008749 0.143553
vn -0.989604 0.008749 0.143553
vn -0.999986 -0.003590 -0.003890
vn -0.956763 -0.027292 -0.289586
vn -0.956763 -0.027292 -0.289586
vn -0.001134 -0.999767 -0.021552
vn -0.001134 -0.999767 -0.021552
vn 0.986052 0.002938 0.166413
vn 0.986052 0.002938 0.166413
vn 0.000657 0.999700 -0.024490
vn 0.000657 0.999700 -0.024490
s off
g plank3
usemtl woodSG
f 33/71/89 34/72/90 36/73/91 35/74/92
s 1
f 35/74/93 36/73/94 44/95/95 41/90/96
s off
f 37/76/97 38/75/98 40/77/99 39/78/100
s 2
f 42/92/101 43/93/102 34/79/103 33/80/104
s 3
f 34/81/105 43/94/106 44/96/107 36/84/108
s 4
f 42/91/109 33/86/110 35/87/111 41/89/112
f 39/85/113 42/91/109 41/89/112 37/88/114
s 2
f 39/78/115 40/77/116 43/93/102 42/92/101
s 3
f 44/96/107 43/94/106 40/82/117 38/83/118
s 1
f 41/90/96 44/95/95 38/75/119 37/76/120
g default
v -1.982542 -0.032235 0.176943
v 1.975098 -0.030834 0.177950
v -1.982992 0.028663 0.171793
v 1.977413 0.028663 0.171793
v -1.979357 0.024004 -0.175553
v 2.024916 0.028663 -0.178190
v -1.977413 -0.028663 -0.171793
v 2.022047 -0.028663 -0.171793
v -1.995776 0.033085 -0.057723
v -1.995874 -0.028663 -0.054059
v 1.999858 -0.036386 0.072739
v 1.998331 0.028663 0.072600
vt 0.035378 0.101082
vt 0.964698 0.102672
vt 0.965203 0.123412
vt 0.035233 0.122272
vt 0.976151 0.244771
vt 0.035879 0.242839
vt 0.975361 0.264768
vt 0.036230 0.261148
vt 0.963625 0.386083
vt 0.034317 0.382067
vt 0.083870 0.992427
vt 0.084350 0.897807
vt 0.097018 0.896088
vt 0.097020 0.990770
vt 0.084349 0.897767
vt 0.083561 0.992114
vt 0.097019 0.990745
vt 0.095989 0.896755
vt 0.097890 0.928658
vt 0.032091 0.201868
vt 0.084435 0.929635
vt 0.031659 0.301957
vt 0.969648 0.349582
vt 0.082808 0.963841
vt 0.970048 0.157817
vt 0.096895 0.963826
vn -0.000143 0.093501 0.995619
vn -0.000143 0.093501 0.995619
vn -0.000143 0.093501 0.995619
vn -0.000143 0.093501 0.995619
vn 0.000335 0.999909 0.013460
vn 0.000335 0.999909 0.013460
vn 0.000351 0.999966 -0.008262
vn 0.000350 0.999978 -0.006610
vn -0.000275 -0.091954 -0.995763
vn -0.000275 -0.091954 -0.995763
vn -0.000275 -0.091954 -0.995763
vn -0.000275 -0.091954 -0.995763
vn -0.000754 -0.999966 -0.008156
vn -0.000741 -0.999955 -0.009480
vn -0.000889 -0.999983 0.005859
vn -0.000889 -0.999982 0.005859
vn 0.975945 0.004847 0.217964
vn 0.991007 -0.002556 0.133787
vn 0.990948 -0.002519 0.134221
vn 0.975945 0.004847 0.217964
vn -0.999960 -0.007014 -0.005561
vn -0.998394 0.001200 0.056640
vn -0.998394 0.001200 0.056640
vn -0.999909 -0.007741 -0.011075
vn -0.989037 -0.025399 -0.145466
vn -0.989037 -0.025399 -0.145466
vn -0.000627 -0.999771 -0.021382
vn -0.000627 -0.999771 -0.021382
vn 0.995180 -0.005681 0.097905
vn 0.995180 -0.005681 0.097905
vn 0.000363 0.999698 -0.024587
vn 0.000363 0.999698 -0.024587
s off
g plank4
usemtl woodSG
f 45/97/121 46/98/122 48/99/123 47/100/124
s 1
f 47/100/125 48/99/126 56/121/127 53/116/128
s off
f 49/102/129 50/101/130 52/103/131 51/104/132
s 2
f 54/118/133 55/119/134 46/105/135 45/106/136
s 3
f 46/107/137 55/120/138 56/122/139 48/110/140
s 4
f 54/117/141 45/112/142 47/113/143 53/115/144
f 51/111/145 54/117/141 53/115/144 49/114/146
s 2
f 51/104/147 52/103/148 55/119/134 54/118/133
s 3
f 56/122/139 55/120/138 52/108/149 50/109/150
s 1
f 53/116/128 56/121/127 50/101/151 49/102/152
g default
v -0.090437 5.623872 0.094315
v -0.090437 0.000000 0.094315
v 0.090437 5.623872 0.094315
v 0.090437 0.000000 0.094315
v 0.090437 5.623872 -0.094315
v 0.090437 0.000000 -0.094315
v -0.090437 5.623872 -0.094315
v -0.090437 0.000000 -0.094315
vt -0.476342 0.004772
vt 0.999902 0.006925
vt 0.999902 0.095691
vt -0.476342 0.093506
vt 0.999902 0.184428
vt -0.476342 0.182491
vt 0.999902 0.260975
vt -0.476342 0.258529
vt 0.999902 0.348621
vt -0.476342 0.346772
vt 0.010176 0.897362
vt 0.010176 0.989952
vt 0.096777 0.989952
vt 0.096777 0.897362
vt 0.010176 0.989952
vt 0.010176 0.897362
vt 0.096777 0.897362
vt 0.096777 0.989952
vn 0.000000 0.000000 1.000000
vn 0.000000 0.000000 1.000000
vn 0.000000 0.000000 1.000000
vn 0.000000 0.000000 1.000000
vn 1.000000 0.000000 0.000000
vn 1.000000 0.000000 0.000000
vn 1.000000 0.000000 0.000000
vn 1.000000 0.000000 0.000000
vn 0.000000 0.000000 -1.000000
vn 0.000000 0.000000 -1.000000
vn 0.000000 0.000000 -1.000000
vn 0.000000 0.000000 -1.000000
vn -1.000000 0.000000 0.000000
vn -1.000000 0.000000 0.000000
vn -1.000000 0.000000 0.000000
vn -1.000000 0.000000 0.000000
vn 0.000000 -1.000000 0.000000
vn 0.000000 -1.000000 0.000000
vn 0.000000 -1.000000 0.000000
vn 0.000000 -1.000000 0.000000
vn 0.000000 1.000000 0.000000
vn 0.000000 1.000000 0.000000
vn 0.000000 1.000000 0.000000
vn 0.000000 1.000000 0.000000
s off
g post
usemtl woodSG
f 57/123/153 58/124/154 60/125/155 59/126/156
f 59/126/157 60/125/158 62/127/159 61/128/160
f 61/128/161 62/127/162 64/129/163 63/130/164
f 63/130/165 64/129/166 58/131/167 57/132/168
f 58/133/169 64/134/170 62/135/171 60/136/172
f 63/137/173 57/138/174 59/139/175 61/140/176
g default
v -0.090437 6.009304 0.094315
v -0.090437 0.000001 0.094315
v 0.090437 6.009304 0.094315
v 0.090437 0.000001 0.094315
v 0.090437 6.009304 -0.094315
v 0.090437 0.000001 -0.094315
v -0.090437 6.009304 -0.094315
v -0.090437 0.000001 -0.094315
v -0.085415 2.228097 0.082636
v 0.098808 2.034911 0.082636
v 0.085184 1.959738 -0.106432
v -0.083741 2.104673 -0.105993
v -0.133035 4.193714 0.121860
v 0.039861 4.434336 0.092531
v 0.047839 4.193714 -0.066769
v -0.138445 4.005374 -0.067978
vt -0.910847 0.044009
vt 1.309975 0.046112
vt 1.309794 0.113117
vt -0.913215 0.110528
vt 1.309483 0.183023
vt -0.913568 0.179888
vt 1.309380 0.250063
vt -0.911231 0.246288
vt 1.309311 0.319909
vt -0.909813 0.315871
vt 0.010308 0.897492
vt 0.010308 0.989823
vt 0.096645 0.989823
vt 0.096645 0.897492
vt 0.010308 0.989822
vt 0.010308 0.897492
vt 0.096645 0.897492
vt 0.096645 0.989822
vt 0.485427 0.046910
vt 0.484217 0.314162
vt 0.557678 0.114058
vt 0.585537 0.183855
vt 0.530752 0.245122
vt -0.241342 0.048053
vt -0.241271 0.312038
vt -0.330285 0.112954
vt -0.241285 0.172486
vt -0.171728 0.241853
vn 0.078968 0.005404 0.996863
vn 0.082428 -0.006929 0.996573
vn 0.080013 0.001685 0.996792
vn 0.078968 0.005404 0.996863
vn 0.998763 -0.027130 0.041667
vn 0.999595 -0.015828 0.023632
vn 0.999614 0.014011 -0.023977
vn 0.998763 -0.027130 0.041667
vn 0.010658 -0.014358 -0.999840
vn 0.007832 -0.005674 -0.999953
vn 0.002393 0.011039 -0.999936
vn 0.010658 -0.014358 -0.999840
vn -0.999715 0.023750 0.002470
vn -0.999597 -0.014132 0.024609
vn -0.999889 0.011251 0.009778
vn -0.999715 0.023750 0.002470
vn 0.000000 -1.000000 0.000000
vn 0.000000 -1.000000 0.000000
vn 0.000000 -1.000000 0.000000
vn 0.000000 -1.000000 0.000000
vn 0.000000 1.000000 0.000000
vn 0.000000 1.000000 0.000000
vn 0.000000 1.000000 0.000000
vn 0.000000 1.000000 0.000000
vn 0.063864 -0.005673 0.997943
vn 0.002894 0.005470 0.999981
vn 0.002894 0.005470 0.999981
vn 0.021986 0.001983 0.999756
vn 0.999335 0.007657 -0.035658
vn 0.999284 0.013012 -0.035539
vn 0.999357 -0.000993 -0.035849
vn 0.999357 -0.000993 -0.035849
vn -0.001070 0.012238 -0.999925
vn -0.002695 0.000975 -0.999996
vn -0.003680 -0.005853 -0.999976
vn -0.003680 -0.005853 -0.999976
vn -0.999671 -0.016881 0.019320
vn -0.999969 -0.005805 0.005369
vn -0.999982 0.002676 -0.005313
vn -0.999982 0.002676 -0.005313
s 1
g post1
usemtl woodSG
f 65/141/177 77/164/178 78/166/179 67/144/180
s 2
f 67/144/181 78/166/182 79/167/183 69/146/184
s 3
f 69/146/185 79/167/186 80/168/187 71/148/188
s 4
f 71/148/189 80/168/190 77/165/191 65/150/192
s off
f 66/151/193 72/152/194 70/153/195 68/154/196
f 71/155/197 65/156/198 67/157/199 69/158/200
s 1
f 73/159/201 66/142/202 68/143/203 74/161/204
s 2
f 75/162/205 74/161/206 68/143/207 70/145/208
s 3
f 76/163/209 75/162/210 70/145/211 72/147/212
s 4
f 73/160/213 76/163/214 72/147/215 66/149/216
s 1
f 77/164/178 73/159/201 74/161/204 78/166/179
s 2
f 79/167/183 78/166/182 74/161/206 75/162/205
s 3
f 80/168/187 79/167/186 75/162/210 76/163/209
s 4
f 77/165/191 80/168/190 76/163/214 73/160/213
g default
v 0.094315 4.021478 0.090437
v 0.094315 0.000000 0.090437
v 0.094315 4.021480 -0.090437
v 0.094315 0.000000 -0.090437
v -0.094315 4.021480 -0.090437
v -0.094315 0.000000 -0.090437
v -0.094315 4.021478 0.090437
v -0.094315 0.000000 0.090437
v 0.082636 1.491063 0.093598
v 0.082636 1.361781 -0.090625
v -0.106432 1.311474 -0.077001
v -0.105993 1.408467 0.091924
v 0.112084 2.806472 0.110042
v 0.082756 2.967497 -0.062853
v -0.076545 2.806472 -0.070832
v -0.077754 2.680434 0.115452
vt -0.246117 0.056640
vt 1.142516 0.051400
vt 1.143054 0.114006
vt -0.248441 0.118918
vt 1.143031 0.179311
vt -0.248512 0.183951
vt 1.142861 0.241926
vt -0.246679 0.246314
vt 1.143216 0.307199
vt -0.245282 0.311539
vt 0.010308 0.897515
vt 0.010308 0.989800
vt 0.096645 0.989800
vt 0.096645 0.897515
vt 0.010308 0.989799
vt 0.010308 0.897515
vt 0.096645 0.897515
vt 0.096645 0.989799
vt 0.626426 0.055056
vt 0.626967 0.305999
vt 0.672262 0.117882
vt 0.689994 0.183119
vt 0.655931 0.241058
vt 0.171918 0.061902
vt 0.173119 0.308141
vt 0.116425 0.122705
vt 0.172451 0.177920
vt 0.216433 0.242369
vn 0.996619 0.001019 -0.082160
vn 0.996566 -0.006752 -0.082530
vn 0.996604 -0.002155 -0.082311
vn 0.996619 0.001019 -0.082160
vn 0.032492 -0.020693 -0.999258
vn 0.015371 -0.010860 -0.999823
vn -0.012016 0.004872 -0.999916
vn 0.032492 -0.020693 -0.999258
vn -0.999876 -0.013568 -0.007951
vn -0.999982 -0.002453 -0.005540
vn -0.999939 0.010734 -0.002679
vn -0.999876 -0.013568 -0.007951
vn 0.008439 0.017566 0.999810
vn 0.015408 -0.005333 0.999867
vn 0.011584 0.007235 0.999907
vn 0.008439 0.017566 0.999810
vn 0.000000 -1.000000 0.000000
vn 0.000000 -1.000000 0.000000
vn 0.000000 -1.000000 0.000000
vn 0.000000 -1.000000 0.000000
vn 0.000000 1.000000 0.000009
vn 0.000000 1.000000 0.000009
vn 0.000000 1.000000 0.000009
vn 0.000000 1.000000 0.000009
vn 0.998276 -0.003694 -0.058579
vn 0.999962 0.008190 -0.002900
vn 0.999962 0.008190 -0.002900
vn 0.999629 0.003036 -0.027061
vn -0.030779 0.007436 -0.999499
vn -0.028511 0.008519 -0.999557
vn -0.036662 0.004626 -0.999317
vn -0.036662 0.004626 -0.999317
vn -0.999935 0.011355 0.000891
vn -0.999996 0.001355 0.002280
vn -0.999955 -0.008768 0.003686
vn -0.999955 -0.008768 0.003686
vn 0.009603 -0.010214 0.999902
vn 0.003561 -0.006426 0.999973
vn -0.004079 -0.001636 0.999990
vn -0.004079 -0.001636 0.999990
s 1
g post2
usemtl woodSG
f 81/169/217 93/192/218 94/194/219 83/172/220
s 2
f 83/172/221 94/194/222 95/195/223 85/174/224
s 3
f 85/174/225 95/195/226 96/196/227 87/176/228
s 4
f 87/176/229 96/196/230 93/193/231 81/178/232
s off
f 82/179/233 88/180/234 86/181/235 84/182/236
f 87/183/237 81/184/238 83/185/239 85/186/240
s 1
f 89/187/241 82/170/242 84/171/243 90/189/244
s 2
f 91/190/245 90/189/246 84/171/247 86/173/248
s 3
f 92/191/249 91/190/250 86/173/251 88/175/252
s 4
f 89/188/253 92/191/254 88/175/255 82/177/256
s 1
f 93/192/218 89/187/241 90/189/244 94/194/219
s 2
f 95/195/223 94/194/222 90/189/246 91/190/245
s 3
f 96/196/227 95/195/226 91/190/250 92/191/249
s 4
f 93/193/231 96/196/230 92/191/254 89/188/253
g default
v -0.094315 1.997222 -0.090437
v -0.094315 0.000000 -0.090437
v -0.094315 1.997222 0.090437
v -0.094315 0.000000 0.090437
v 0.094315 1.997222 0.090437
v 0.094315 0.000000 0.090437
v 0.094315 1.997222 -0.090437
v 0.094315 0.000000 -0.090437
v -0.102066 0.740521 -0.109754
v -0.102066 0.676313 0.074469
v 0.087002 0.651329 0.060845
v 0.086563 0.699498 -0.108080
v -0.107594 1.393804 -0.108576
v -0.078265 1.473775 0.064320
v 0.081036 1.393802 0.072299
v 0.082245 1.331208 -0.113985
vt 0.247419 0.039915
vt 0.973971 0.031572
vt 0.976741 0.097707
vt 0.243228 0.105516
vt 0.978845 0.166575
vt 0.243844 0.174061
vt 0.977336 0.232635
vt 0.246878 0.239841
vt 0.976903 0.301631
vt 0.248657 0.308823
vt 0.010308 0.897538
vt 0.010308 0.989777
vt 0.096644 0.989777
vt 0.096644 0.897538
vt 0.010309 0.989777
vt 0.010309 0.897538
vt 0.096645 0.897538
vt 0.096645 0.989777
vt 0.703446 0.036092
vt 0.706309 0.302473
vt 0.729454 0.102623
vt 0.739477 0.171781
vt 0.721355 0.233498
vt 0.465879 0.045216
vt 0.468780 0.306084
vt 0.436191 0.109457
vt 0.465484 0.168196
vt 0.490246 0.235966
vn -0.996457 -0.005746 0.083909
vn -0.996599 0.007465 0.082059
vn -0.996564 0.002244 0.082792
vn -0.996457 -0.005746 0.083909
vn -0.031937 -0.039302 0.998717
vn -0.011365 -0.022847 0.999674
vn 0.002153 -0.012029 0.999925
vn -0.031937 -0.039302 0.998717
vn 0.999774 -0.020185 0.006734
vn 0.999948 -0.009055 0.004775
vn 0.999989 -0.003007 0.003710
vn 0.999774 -0.020185 0.006734
vn -0.008826 0.032996 -0.999417
vn -0.010072 0.010928 -0.999890
vn -0.009659 0.018250 -0.999787
vn -0.008826 0.032996 -0.999417
vn 0.000000 -1.000000 0.000000
vn 0.000000 -1.000000 0.000000
vn 0.000000 -1.000000 0.000000
vn 0.000000 -1.000000 0.000000
vn 0.000000 1.000000 0.000003
vn 0.000000 1.000000 0.000003
vn 0.000000 1.000000 0.000003
vn 0.000000 1.000000 0.000003
vn -0.998782 0.003775 0.049187
vn -0.999938 -0.010990 -0.001933
vn -0.999938 -0.010990 -0.001933
vn -0.999532 -0.001609 0.030558
vn 0.027713 0.017802 0.999457
vn 0.025846 0.014827 0.999556
vn 0.038317 0.034706 0.998663
vn 0.038317 0.034706 0.998663
vn 0.999959 0.008938 0.001237
vn 0.999953 0.009623 0.000943
vn 0.999938 0.011161 0.000282
vn 0.999938 0.011161 0.000282
vn -0.005173 -0.013747 -0.999892
vn -0.003395 -0.016849 -0.999852
vn 0.001648 -0.025639 -0.999670
vn 0.001648 -0.025639 -0.999670
s 1
g post3
usemtl woodSG
f 97/197/257 109/220/258 110/222/259 99/200/260
s 2
f 99/200/261 110/222/262 111/223/263 101/202/264
s 3
f 101/202/265 111/223/266 112/224/267 103/204/268
s 4
f 103/204/269 112/224/270 109/221/271 97/206/272
s off
f 98/207/273 104/208/274 102/209/275 100/210/276
f 103/211/277 97/212/278 99/213/279 101/214/280
s 1
f 105/215/281 98/198/282 100/199/283 106/217/284
s 2
f 107/218/285 106/217/286 100/199/287 102/201/288
s 3
f 108/219/289 107/218/290 102/201/291 104/203/292
s 4
f 105/216/293 108/219/294 104/203/295 98/205/296
s 1
f 109/220/258 105/215/281 106/217/284 110/222/259
s 2
f 111/223/263 110/222/262 106/217/286 107/218/285
s 3
f 112/224/267 111/223/266 107/218/290 108/219/289
s 4
f 109/221/271 112/224/270 108/219/294 105/216/293
g default
v 0.182023 0.030654 -0.042508
v 0.180443 -0.026673 -0.036111
v 0.182675 0.030654 0.026877
v -0.182675 0.029888 -0.042075
v 0.182461 -0.030654 0.042508
vt 0.754059 0.574802
vt 0.591067 0.601557
vt 0.592103 0.570741
vt 0.593512 0.545137
vt 0.593581 0.510145
vt 0.097018 0.914875
vt 0.083471 0.919095
vt 0.084351 0.897843
vt 0.097017 0.896118
vt 0.594485 0.629465
vn -0.002098 0.999998 0.000020
vn -0.002098 0.999998 0.000020
vn -0.002098 0.999998 0.000020
vn -0.000948 -0.110875 -0.993834
vn -0.000948 -0.110875 -0.993834
vn -0.000948 -0.110875 -0.993834
vn -0.153007 -0.987151 -0.046060
vn -0.153007 -0.987151 -0.046060
vn -0.153007 -0.987151 -0.046060
vn 0.999656 -0.018562 -0.018530
vn 0.999656 -0.018562 -0.018530
vn 0.999656 -0.018562 -0.018530
vn 0.999656 -0.018562 -0.018530
vn -0.180359 0.243598 0.952959
vn -0.180359 0.243598 0.952959
vn -0.180359 0.243598 0.952959
s off
g splinter2
usemtl woodSG
f 116/225/297 115/226/298 113/227/299
f 116/225/300 113/227/301 114/228/302
f 117/229/303 116/225/304 114/228/305
f 115/230/306 117/231/307 114/232/308 113/233/309
f 116/225/310 117/234/311 115/226/312
g default
v 0.432639 -0.028106 0.058354
v 0.433914 0.031391 0.052198
v 0.456411 0.031391 -0.047500
v -0.094138 0.031391 0.037905
v -0.459424 -0.028680 0.057942
v 0.459423 -0.031391 -0.058354
vt 0.743000 0.458370
vt 0.581573 0.437931
vt 0.970052 0.409531
vt 0.972527 0.435537
vt 0.985523 0.478231
vt 0.582221 0.487534
vt 0.986209 0.506074
vt 0.965971 0.554305
vt 0.083870 0.992427
vt 0.083145 0.960853
vt 0.097019 0.963797
vt 0.097020 0.990770
vn -0.024221 0.445766 0.894822
vn -0.012945 0.284191 0.958680
vn -0.001299 0.114323 0.993443
vn -0.000526 0.102939 0.994688
vn 0.000000 1.000000 -0.000000
vn 0.000000 1.000000 -0.000000
vn 0.000000 1.000000 -0.000000
vn 0.000630 -0.999600 0.028282
vn 0.000630 -0.999600 0.028282
vn 0.000630 -0.999600 0.028282
vn 0.974680 0.008132 0.223457
vn 0.974879 0.006592 0.222636
vn 0.975158 0.004403 0.221468
vn 0.975470 0.001885 0.220122
vn -0.131301 0.516099 -0.846405
vn -0.123917 0.174628 -0.976806
vn -0.129863 0.354433 -0.926020
vn -0.123407 0.163305 -0.978827
s 1
g splinter1
usemtl woodSG
f 121/235/313 122/236/314 119/238/315
f 119/238/315 122/236/314 118/237/316
s off
f 120/239/317 121/235/318 119/238/319
f 122/240/320 123/241/321 118/242/322
s 2
f 123/244/323 120/245/324 118/243/325
f 118/243/325 120/245/324 119/246/326
s 3
f 121/235/327 120/239/328 122/240/329
f 122/240/329 120/239/328 123/241/330
